<?xml version="1.0" encoding="UTF-8" standalone="no"?>
<!DOCTYPE svg PUBLIC "-//W3C//DTD SVG 1.1//EN" "http://www.w3.org/Graphics/SVG/1.1/DTD/svg11.dtd">
<svg version="1.1" xmlns="http://www.w3.org/2000/svg" xmlns:xlink="http://www.w3.org/1999/xlink" preserveAspectRatio="xMidYMid meet" viewBox="0 0 640 640" width="640" height="640"><defs><path d="M351.94 190.9C519.64 312.95 612.8 380.75 631.43 394.31C637.03 370.62 640 345.92 640 320.54C640 218.96 592.57 128.27 518.75 69.5C518.75 69.5 463.14 109.97 351.94 190.9Z" id="aqYZhMy0h"></path><path d="M486.23 46.74C437.75 17.1 380.83 0 320 0C254.62 0 193.77 19.76 143.06 53.6C147.31 66.7 168.55 132.2 206.8 250.1C355.83 141.64 448.97 73.85 486.23 46.74Z" id="a1d3inKEVe"></path><path d="M111.43 77.64C43.24 136.47 0 223.54 0 320.54C0 350.34 4.1 379.21 11.73 406.61C25.49 406.61 94.3 406.61 218.14 406.61C161.23 231.16 125.66 121.5 111.43 77.64Z" id="cwpK6H5IF"></path><path d="M25.68 443.4C72.43 555 180.47 634.69 307.38 640C311.64 626.89 332.89 561.36 371.15 443.4C186.9 443.4 71.74 443.4 25.68 443.4Z" id="c42P5dpAye"></path><path d="M346.16 639.09C471.97 628.85 577.42 545.4 619.9 431.44C608.77 423.34 553.11 382.83 452.93 309.92C395.98 485.48 360.39 595.2 346.16 639.09Z" id="b387DqaPq"></path></defs><g><g><g><g><use xlink:href="#aqYZhMy0h" opacity="1" fill="#ffffff" fill-opacity="1"></use><g><use xlink:href="#aqYZhMy0h" opacity="1" fill-opacity="0" stroke="#000000" stroke-width="1" stroke-opacity="0"></use></g></g><g><use xlink:href="#a1d3inKEVe" opacity="1" fill="#ffffff" fill-opacity="1"></use><g><use xlink:href="#a1d3inKEVe" opacity="1" fill-opacity="0" stroke="#000000" stroke-width="1" stroke-opacity="0"></use></g></g><g><use xlink:href="#cwpK6H5IF" opacity="1" fill="#ffffff" fill-opacity="1"></use><g><use xlink:href="#cwpK6H5IF" opacity="1" fill-opacity="0" stroke="#000000" stroke-width="1" stroke-opacity="0"></use></g></g><g><use xlink:href="#c42P5dpAye" opacity="1" fill="#ffffff" fill-opacity="1"></use><g><use xlink:href="#c42P5dpAye" opacity="1" fill-opacity="0" stroke="#000000" stroke-width="1" stroke-opacity="0"></use></g></g><g><use xlink:href="#b387DqaPq" opacity="1" fill="#ffffff" fill-opacity="1"></use><g><use xlink:href="#b387DqaPq" opacity="1" fill-opacity="0" stroke="#000000" stroke-width="1" stroke-opacity="0"></use></g></g></g></g></g></svg>