<svg id="Capa_1" enable-background="new 0 0 512 512" height="512" viewBox="0 0 512 512" width="512" xmlns="http://www.w3.org/2000/svg"><g><path d="m339.225 79.324c-22.945-22.851-53.085-34.276-83.225-34.276l-10 16.571 10 13.405c22.473 0 44.946 8.519 62.055 25.556 22.258 22.165 51.813 34.372 83.225 34.372v-30c-23.422 0-45.46-9.102-62.055-25.628z" fill="#a05f4b"/><path d="m172.775 79.324c-16.596 16.527-38.634 25.628-62.055 25.628v30c31.411 0 60.967-12.207 83.225-34.372 17.109-17.037 39.582-25.556 62.055-25.556v-29.976c-30.139 0-60.279 11.425-83.225 34.276z" fill="#c47e4e"/><path d="m512 104.952-276 20 20 342h256z" fill="#a05f4b"/><path d="m0 104.952v362h256v-342z" fill="#c47e4e"/><path d="m256 104.952-20 205.195 70 20h78.884c54.636 0 100.94-40.213 108.595-94.31l18.521-130.885z" fill="#724435"/><path d="m0 104.952 18.521 130.885c7.655 54.097 53.959 94.31 108.595 94.31h78.884l50-20v-205.195z" fill="#a05f4b"/><path d="m306 300.147v-30h-50l-20 50z" fill="#ffea80"/><path d="m206 300.147 50 20v-50h-50z" fill="#ffffb3"/><path d="m256 330.147h50v-30h-50l-10 15z" fill="#fc6"/><path d="m206 300.147h50v30h-50z" fill="#ffea80"/></g></svg>