<svg id="Layer_1" enable-background="new 0 0 512 512" height="512" viewBox="0 0 512 512" width="512" xmlns="http://www.w3.org/2000/svg"><g><g><path d="m325.079 438.585h-138.158l-10.536 8.255 7.691 10.604 15.778 9.291h112.292l15.778-9.29 7.821-9.744z" fill="#ffbe7c"/><path d="m184.076 457.444-10.692 9.291 7.889 9.29h149.454l7.889-9.29-10.692-9.291z" fill="#ea9d57"/><g fill="#ff9517"><path d="m171.405 512h-35.221c-3.157 0-5.574-2.809-5.104-5.931l14.996-99.401 24.232-9.29 21.428 9.29-15.228 100.941c-.381 2.524-2.55 4.391-5.103 4.391z"/><path d="m340.595 512h35.22c3.157 0 5.575-2.809 5.104-5.931l-14.996-99.401-24.232-9.29-21.428 9.29 15.228 100.941c.382 2.524 2.551 4.391 5.104 4.391z"/></g><path d="m279.869 28.361h-47.738l-9.29-9.29v-3.493c0-8.603 6.974-15.578 15.578-15.578h35.162c8.604 0 15.578 6.975 15.578 15.578v3.493z" fill="#ffbe7c"/><path d="m222.841 37.652 33.159 9.29 33.159-9.29v-18.581h-66.318z" fill="#ea9d57"/><path d="m146.076 406.668h45.66l2.803-18.581-24.231-9.29-21.429 9.29z" fill="#ef7f0f"/><path d="m363.12 388.087-21.239-9.29-24.42 9.29 2.803 18.581h45.66z" fill="#ef7f0f"/><path d="m388.108 37.651h-264.216c-8.603 0-15.578 6.974-15.578 15.578v236.497l27.871 35.758h239.63l27.871-78.246v-194.009c0-8.603-6.975-15.578-15.578-15.578z" fill="#86dcff"/><path d="m188.686 199.779-80.371 89.947v35.758l18.581 9.29h187.114l11.268-9.29-18.925-41.974-52.956-38.472-40.442-45.26c-6.469-7.24-17.799-7.24-24.269.001z" fill="#a0e557"/><path d="m108.314 325.484v18.581l108.482 9.29 125.085-9.29-16.602-18.581z" fill="#87d654"/><path d="m281.218 123.82c-3.781-10.26-13.645-17.577-25.218-17.577s-21.437 7.317-25.218 17.577c-1.067 2.895-.069 26.868 25.218 26.868s26.285-23.973 25.218-26.868z" fill="#ffcf4d"/><path d="m256 141.398c-11.573 0-21.436-7.317-25.217-17.577-1.067 2.895-1.651 6.024-1.651 9.29 0 14.839 12.029 26.868 26.868 26.868s26.868-12.029 26.868-26.868c0-3.266-.584-6.395-1.651-9.29-3.782 10.259-13.644 17.577-25.217 17.577z" fill="#ffb629"/><path d="m403.686 247.238-63.991-71.616c-6.47-7.241-17.8-7.241-24.27 0l-49.08 54.928-.223 18.269 75.76 85.955h50.513l11.292-9.29z" fill="#67b734"/><path d="m349.632 323.762-83.288-93.212-12.946 14.489 88.484 99.026h61.805v-18.581h-50.205c-1.47 0-2.87-.626-3.85-1.722z" fill="#549e25"/><path d="m409.703 378.797h-307.406c-10.385 0-10.385-19.676-10.385-19.676v-4.671c0-5.736 4.65-10.385 10.385-10.385h307.406c5.736 0 10.385 4.65 10.385 10.385v4.671s0 19.676-10.385 19.676z" fill="#ffbe7c"/><path d="m409.703 369.506h-307.406c-5.736 0-10.385-4.65-10.385-10.385v18.581c0 5.736 4.65 10.385 10.385 10.385h307.406c5.736 0 10.385-4.65 10.385-10.385v-18.581c0 5.736-4.649 10.385-10.385 10.385z" fill="#ea9d57"/></g><g fill="#e4eef9"><path d="m180.769 149.505c-8.005 0-14.193 3.38-18.589 7.497-4.396-4.118-10.585-7.497-18.589-7.497-4.284 0-7.757 3.473-7.757 7.757s3.473 7.757 7.757 7.757c7.739 0 11.333 7.781 11.452 8.043 2.372 6.188 11.839 6.256 14.243.07.15-.331 3.743-8.113 11.483-8.113 4.284 0 7.757-3.473 7.757-7.757s-3.473-7.757-7.757-7.757z"/><path d="m316.967 97.408c0 4.285 3.473 7.757 7.757 7.757 7.74 0 11.334 7.781 11.453 8.043 2.371 6.189 11.839 6.256 14.243.07.15-.331 3.743-8.112 11.482-8.112 4.284 0 7.757-3.473 7.757-7.757 0-4.285-3.473-7.757-7.757-7.757-8.005 0-14.192 3.38-18.589 7.498-4.397-4.118-10.585-7.498-18.59-7.498-4.284-.001-7.756 3.471-7.756 7.756z"/><path d="m201.875 89.368c4.284 0 7.757-3.472 7.757-7.757s-3.473-7.757-7.757-7.757c-8.005 0-14.193 3.38-18.589 7.497-4.396-4.118-10.585-7.497-18.589-7.497-4.284 0-7.757 3.473-7.757 7.757 0 4.285 3.473 7.757 7.757 7.757 7.739 0 11.333 7.781 11.452 8.043 2.372 6.188 11.839 6.256 14.243.07.15-.332 3.744-8.113 11.483-8.113z"/></g></g></svg>