<svg height="512pt" viewBox="0 -31 512 512" width="512pt" xmlns="http://www.w3.org/2000/svg"><path d="m403.464844 321.769531-67.191406-242.769531 28.914062-8 67.195312 242.769531zm0 0" fill="#9abadb"/><path d="m61 75h30v240h-30zm0 0" fill="#e0f4ff"/><path d="m151 75h30v240h-30zm0 0" fill="#bbdcff"/><path d="m241 75h30v240h-30zm0 0" fill="#e0f4ff"/><path d="m256 75h15v240h-15zm0 0" fill="#bbdcff"/><path d="m331 375c0 41.398438-33.601562 75-75 75s-75-33.601562-75-75 33.601562-75 75-75 75 33.601562 75 75zm0 0" fill="#ffd396"/><path d="m331 375c0 41.398438-33.601562 75-75 75v-150c41.398438 0 75 33.601562 75 75zm0 0" fill="#ffb64c"/><path d="m436 450c-41.351562 0-75-33.648438-75-75s33.648438-75 75-75 76 33.648438 76 75-34.648438 75-76 75zm0 0" fill="#ff9100"/><path d="m436 0h-360c-41.398438 0-76 33.601562-76 75v15h512v-15c0-41.398438-34.601562-75-76-75zm0 0" fill="#537983"/><path d="m512 75v15h-256v-90h180c41.398438 0 76 33.601562 76 75zm0 0" fill="#3e5959"/><path d="m241 375c0 41.421875-33.578125 75-75 75s-75-33.578125-75-75 33.578125-75 75-75 75 33.578125 75 75zm0 0" fill="#ffb64c"/><path d="m76 450c-41.351562 0-76-33.648438-76-75s34.648438-75 76-75 75 33.648438 75 75-33.648438 75-75 75zm0 0" fill="#ffd396"/></svg>